<?xml version="1.0" encoding="UTF-8"?>
<svg id="bomb" width="32" height="32" version="1.1" viewBox="0 0 8.466666 8.466666" xmlns="http://www.w3.org/2000/svg" xmlns:cc="http://creativecommons.org/ns#" xmlns:dc="http://purl.org/dc/elements/1.1/" xmlns:rdf="http://www.w3.org/1999/02/22-rdf-syntax-ns#">
 <metadata>
  <rdf:RDF>
   <cc:Work rdf:about="">
    <dc:format>image/svg+xml</dc:format>
    <dc:type rdf:resource="http://purl.org/dc/dcmitype/StillImage"/>
    <dc:title/>
   </cc:Work>
  </rdf:RDF>
 </metadata>
 <g transform="translate(0,-288.53)">
  <path d="m7.4083 289.59v0.52916h-0.52917v0.52916h-1.0583v-0.52916h-0.52917v-0.52916h-1.0583v1.0583h-0.52917v-1.0583h0.52917v-0.52918h1.0583v0.52918h0.52917v0.52916h1.0583v-0.52916z" fill="#fefefe"/>
  <path d="m4.2333 290.12h0.52917v0.52916h1.0583v0.52918h0.52917v1.0583h0.52917v2.1167h-0.52917v1.0583h-0.52917v0.52918h-1.0583v0.52916h-2.1167v-0.52916h-1.0583v-0.52918h-0.52917v-1.0583h-0.52917v-2.1167h0.52917v-1.0583h0.52917v-0.52918h1.0583v-0.52916h1.0583v0.52916h0.52917v0.52918h-1.0583v-0.52918h-0.52917v0.52918h0.52917v0.52916h1.0583v-0.52916h0.52917v0.52916h-0.52917v0.52916h-1.0583v-0.52916h-0.52917v-0.52916h-1.0583v1.0583h-0.52917v2.1167h0.52917v1.0583h1.0583v0.52918h2.1167v-0.52918h1.0583v-1.0583h0.52917v-2.1167h-0.52917v-1.0583h-1.0583v-0.52918h-0.52917z" fill="#282828"/>
  <path d="m4.7625 291.7h0.52917v0.52916h0.52917v0.52918h-0.52917v0.52915h-0.52917v-0.52915h-0.52917v-0.52918h0.52917z" fill="#fefefe"/>
  <path d="m2.1167 291.7h0.52917v0.52916h0.52917v0.52918h0.52917v-0.52918h0.52917v-0.52916h0.52917v0.52916h-0.52917v0.52918h0.52917v0.52915h-2.1167v0.52916h2.1167v-0.52916h0.52917v-0.52915h0.52917v0.52915h-0.52917v1.0583h-0.52917v0.52916h-2.1167v-0.52916h-0.52917v-1.0583h0.52917v-0.52915h-0.52917z" fill="#93acee"/>
  <path d="m1.5875 291.18v1.0583h-0.52917v2.1167h0.52917v1.0583h1.0583v0.52918h2.1167v-0.52918h1.0583v-1.0583h0.52917v-2.1167h-0.52917v-1.0583h-1.0583v-0.52918h-0.52917v0.52918h-1.0583v-0.52918h-0.52917v0.52918h0.52917v0.52916h1.0583v-0.52916h0.52917v0.52916h0.52917v0.52916h0.52917v1.0583h-0.52917v1.0583h-0.52917v0.52916h-2.1167v-0.52916h-0.52917v-1.0583h0.52917v0.52916h2.1167v-0.52916h-2.1167v-0.52915h-0.52917v-1.0583h0.52917v0.52916h0.52917v0.52918h0.52917v-0.52918h-0.52917v-0.52916h-0.52917v-0.52916z" fill="#516aac"/>
 </g>
</svg>
