<?xml version="1.0" encoding="UTF-8"?>
<svg id="heart-container-empty" width="16" height="16" version="1.1" viewBox="0 0 16 16" xmlns="http://www.w3.org/2000/svg" xmlns:cc="http://creativecommons.org/ns#" xmlns:dc="http://purl.org/dc/elements/1.1/" xmlns:rdf="http://www.w3.org/1999/02/22-rdf-syntax-ns#">
 <metadata>
  <rdf:RDF>
   <cc:Work rdf:about="">
    <dc:format>image/svg+xml</dc:format>
    <dc:type rdf:resource="http://purl.org/dc/dcmitype/StillImage"/>
    <dc:title/>
   </cc:Work>
  </rdf:RDF>
 </metadata>
 <g transform="matrix(.37795 0 0 .37795 2.4611e-6 -96.252)">
  <path d="m7.9375 257.31h7.9375v2.6458h2.6458v2.6458h5.2917v-2.6458h2.6458v-2.6458h7.9375v2.6458h2.6458v2.6458h2.6458v10.583h-2.6458v5.2917h-2.6458v2.6458h-2.6458v2.6458h-2.6458v2.6458h-2.6458v2.6458h-2.6458v2.6458h-5.2917v-2.6458h-2.6458v-2.6458h-2.6458v-2.6458h-2.6458v-2.6458h-2.6458v-2.6458h-2.6458v-5.2917h-2.6458v-10.583h2.6458v-2.6458h2.6458v2.6458h-2.6458v10.583h2.6458v5.2917h2.6458v2.6458h2.6458v2.6458h2.6458v2.6458h2.6458v2.6458h5.2917v-2.6458h2.6458v-2.6458h2.6458v-2.6458h2.6458v-2.6458h2.6458v-5.2917h2.6458v-10.583h-2.6458v-2.6458h-7.9375v2.6458h-2.6458v2.6458h-5.2917v-2.6458h-2.6458v-2.6458h-7.9375z" fill="#fefefe"/>
  <path d="m7.9375 259.96h7.9375v2.6458h2.6458v2.6458h5.2917v-2.6458h2.6458v-2.6458h7.9375v2.6458h2.6458v10.583h-2.6458v5.2917h-2.6458v2.6458h-2.6458v2.6458h-2.6458v2.6458h-2.6458v2.6458h-5.2917v-2.6458h-2.6458v-2.6458h-2.6458v-2.6458h-2.6458v-2.6458h-2.6458v-5.2917h-2.6458v-10.583h2.6458z" fill="#282828"/>
 </g>
</svg>
