<?xml version="1.0" encoding="UTF-8"?>
<svg id="pegasus-boots" width="32" height="32" version="1.1" viewBox="0 0 8.4666667 8.4666667" xmlns="http://www.w3.org/2000/svg" xmlns:cc="http://creativecommons.org/ns#" xmlns:dc="http://purl.org/dc/elements/1.1/" xmlns:rdf="http://www.w3.org/1999/02/22-rdf-syntax-ns#">
 <metadata>
  <rdf:RDF>
   <cc:Work rdf:about="">
    <dc:format>image/svg+xml</dc:format>
    <dc:type rdf:resource="http://purl.org/dc/dcmitype/StillImage"/>
    <dc:title/>
   </cc:Work>
  </rdf:RDF>
 </metadata>
 <g transform="translate(0 -288.53)">
  <path d="m6.8792 288.53h0.52917v0.52916h0.52917v6.8792h-0.52917v0.52916h-1.5875v-0.52916h-1.0583v0.52916h-3.7042v-0.52916h-0.52917v-1.0583h0.52917v-0.52916h0.52917v-0.52918h1.0583v-0.52916h0.52917v-2.1166h-0.52917v-2.1167h0.52917v-0.52916h1.5875v0.52916h1.0583v0.52918h0.52917v-0.52918h0.52917v0.52918h-0.52917v0.52916h-0.52917v-0.52916h-1.0583v-0.52918h-1.5875v2.1167h1.5875v-0.52918h1.5875v0.52918h1.0583v0.52916h-1.0583v-0.52916h-1.5875v0.52916h1.5875v0.52916h-1.5875v-0.52916h-1.0583v1.5875h-0.52917v0.52916h-0.52917v0.52918h-1.0583v0.52916h-0.52917v1.0583h3.7042v-0.52918h1.0583v0.52918h1.5875v-1.5875h-0.52917v-0.52918h0.52917v-4.7625h-0.52917z" fill="#282828"/>
  <path d="m4.7625 291.18h1.5875v0.52916h-1.5875z" fill="#bcbccd"/>
  <path d="m2.6458 294.35h0.52917v0.52918h-0.52917z" fill="#fefefe"/>
  <g fill="#e67272">
   <path d="m5.2917 289.59v0.52916h1.0583v-0.52916h0.52917v0.52916h-0.52917v0.52916h-1.5875v-0.52916h-1.0583v-0.52916z"/>
   <path d="m3.7042 292.24h0.52917v0.52917h0.52917v0.52916h1.0583v0.52916h-1.5875v-0.52916h-0.52917z"/>
   <path d="m3.175 293.82v0.52918h1.5875v0.52916h0.52917v0.52916h-0.52917v-0.52916h-1.0583v0.52916h-1.5875v-1.0583h0.52917v0.52916h0.52917v-0.52916h-0.52917v-0.52918z"/>
   <path d="m7.4083 292.77v1.0583h-0.52917v0.52918h0.52917v0.52916h-0.52917v-0.52916h-0.52917v0.52916h-0.52917v-0.52916h0.52917v-1.0583h0.52917v-0.52916z"/>
  </g>
  <g fill="#b42828">
   <path d="m4.7625 289.59v-0.52918h-1.5875v2.1167h1.5875v-1.0583h-1.0583v-0.52916z"/>
   <path d="m5.2917 289.59h0.52917v0.52916h-0.52917z"/>
   <path d="m6.8792 289.06h0.52917v2.1167h-1.0583v-1.0583h0.52917z"/>
   <path d="m3.7042 291.71h1.0583v0.52916h1.5875v-0.52916h1.0583v1.0583h-0.52917v0.52916h-0.52917v1.0583h-0.52917v0.52916h0.52917v-0.52916h0.52917v0.52916h0.52917v1.0583h-1.5875v-0.52918h-0.52917v-0.52916h-0.52917v-0.52916h-1.5875v-1.0583h1.0583v0.52916h1.5875v-0.52916h-1.0583v-0.52916h-0.52917v-0.52917h-0.52917z"/>
   <path d="m2.1167 294.35v1.0583h1.5875v-0.52916h1.0583v1.0583h-3.7042v-1.0583h0.52917v-0.52916z"/>
  </g>
 </g>
</svg>
