<?xml version="1.0" encoding="UTF-8"?>
<svg id="piece-of-heart" width="16" height="16" version="1.1" viewBox="0 0 16 16" xmlns="http://www.w3.org/2000/svg" xmlns:cc="http://creativecommons.org/ns#" xmlns:dc="http://purl.org/dc/elements/1.1/" xmlns:rdf="http://www.w3.org/1999/02/22-rdf-syntax-ns#">
 <metadata>
  <rdf:RDF>
   <cc:Work rdf:about="">
    <dc:format>image/svg+xml</dc:format>
    <dc:type rdf:resource="http://purl.org/dc/dcmitype/StillImage"/>
    <dc:title/>
   </cc:Work>
  </rdf:RDF>
 </metadata>
 <g transform="matrix(.37796 0 0 .37796 -.0001716 -96.255)">
  <path d="m7.9375 257.31h7.9375v2.6458h2.6458v2.6458h5.2917v-2.6458h2.6458v-2.6458h7.9375v2.6458h2.6458v2.6458h2.6458v10.583h-2.6458v5.2917h-2.6458v2.6458h-2.6458v2.6458h-2.6458v2.6458h-2.6458v2.6458h-2.6458v2.6458h-5.2917v-2.6458h-2.6458v-2.6458h-2.6458v-2.6458h-2.6458v-2.6458h-2.6458v-2.6458h-2.6458v-5.2917h-2.6458v-10.583h2.6458v-2.6458h2.6458v2.6458h-2.6458v10.583h2.6458v5.2917h2.6458v2.6458h2.6458v2.6458h2.6458v2.6458h2.6458v2.6458h5.2917v-2.6458h2.6458v-2.6458h2.6458v-2.6458h2.6458v-2.6458h2.6458v-5.2917h2.6458v-10.583h-2.6458v-2.6458h-7.9375v2.6458h-2.6458v2.6458h-5.2917v-2.6458h-2.6458v-2.6458h-7.9375z" fill="#fefefe"/>
  <path d="m7.9375 259.96h7.9375v2.6458h2.6458v2.6458h-5.2917v2.6458h-2.6458v7.9375h2.6458v2.6458h2.6458v2.6458h2.6458v2.6458h5.2917v-2.6458h2.6458v-2.6458h2.6458v-2.6458h2.6458v-7.9375h-2.6458v-2.6458h-5.2917v-2.6458h2.6458v-2.6458h7.9375v2.6458h2.6458v10.583h-2.6458v5.2917h-2.6458v2.6458h-2.6458v2.6458h-2.6458v2.6458h-2.6458v2.6458h-5.2917v-2.6458h-2.6458v-2.6458h-2.6458v-2.6458h-2.6458v-2.6458h-2.6458v-5.2917h-2.6458v-10.583h2.6458z" fill="#282828"/>
  <path d="m18.521 265.25h5.2917v2.6458h-5.2917z" fill="#282828"/>
  <path d="m18.521 267.9v-2.6458h-5.2917v2.6458h-2.6458v7.9375h2.6458v2.6458h2.6458v2.6458h2.6458v2.6458h5.2917v-2.6458h2.6458v-2.6458h2.6458v-2.6458h2.6458v-7.9375h-2.6458v-2.6458h-5.2917v2.6458h-5.2917v2.6458h5.2917v-2.6458h5.2917v7.9375h-2.6458v2.6458h-2.6458v2.6458h-5.2917v-2.6458h-2.6458v-2.6458h-2.6458v-7.9375z" fill="#fefefe"/>
  <path d="m18.521 273.19v-2.6458h-2.6458v5.2917h2.6458v2.6458h5.2917v-2.6458h2.6458v-5.2917h-2.6458v2.6458z" fill="#cd300f"/>
  <path d="m18.521 267.9h-5.2917v7.9375h2.6458v2.6458h2.6458v2.6458h5.2917v-2.6458h2.6458v-2.6458h2.6458v-7.9375h-5.2917v2.6458h-5.2917v2.6458h5.2917v-2.6458h2.6458v5.2917h-2.6458v2.6458h-5.2917v-2.6458h-2.6458v-5.2917h2.6458z" fill="#fe7230"/>
 </g>
</svg>
