<?xml version="1.0" encoding="UTF-8"?>
<svg id="rupee-green-2" width="32" height="32" version="1.1" viewBox="0 0 8.4666664 8.466667" xmlns="http://www.w3.org/2000/svg" xmlns:cc="http://creativecommons.org/ns#" xmlns:dc="http://purl.org/dc/elements/1.1/" xmlns:rdf="http://www.w3.org/1999/02/22-rdf-syntax-ns#">
 <metadata>
  <rdf:RDF>
   <cc:Work rdf:about="">
    <dc:format>image/svg+xml</dc:format>
    <dc:type rdf:resource="http://purl.org/dc/dcmitype/StillImage"/>
    <dc:title/>
   </cc:Work>
  </rdf:RDF>
 </metadata>
 <g transform="translate(0 -288.53)">
  <path d="m3.7042 289.06h1.0583v0.52918h0.52917v0.52916h0.52917v0.52916h0.52917v4.2333h-0.52917v0.52916h-0.52917v0.52918h-0.52917v0.52916h-1.0583v-0.52916h-0.52917v-0.52918h-0.52917v-0.52916h-0.52917v-4.2333h0.52917v-0.52916h0.52917v-0.52916h0.52917v0.52916h-0.52917v0.52916h-0.52917v4.2333h0.52917v0.52916h0.52917v0.52918h1.0583v-0.52918h0.52917v-0.52916h0.52917v-3.7042h-0.52917v-1.0583h-0.52917v-0.52916h-1.0583z" fill="#282828"/>
  <path d="m3.7042 289.59h0.52917v0.52916h1.0583v1.0583h-0.52917v1.5875h-0.52917v0.52916h-0.52917v1.0583h-0.52917v0.52916h-0.52917v-2.1167h0.52917v0.52916h0.52917v-2.1166h1.0583v-0.52918h-1.0583v0.52918h-0.52917v0.52916h-0.52917v-1.0583h0.52917v-0.52916h0.52917z" fill="#fefefe"/>
  <g fill="#9bd572">
   <path d="m3.7042 290.65h0.52917v0.52918h-0.52917v0.52916h-0.52917v1.0583h-0.52917v-1.0583h0.52917v-0.52916h0.52917z"/>
   <path d="m5.8208 291.71h-0.52917v1.5875h0.52917z"/>
   <path d="m3.175 295.41v-1.0583h0.52917v-1.0583h0.52917v-0.52916h0.52917v1.5875h-0.52917v1.0583z"/>
  </g>
  <g fill="#499330">
   <path d="m4.2333 289.59h0.52917v0.52916h-0.52917z"/>
   <path d="m4.2333 290.65h0.52917v0.52918h-0.52917z"/>
   <path d="m3.175 291.71h0.52917v1.5875h-0.52917z"/>
   <path d="m4.7625 291.18h1.0583v0.52916h-0.52917v1.5875h0.52917v1.5875h-0.52917v0.52916h-0.52917v0.52918h-1.0583v-0.52918h0.52917v-1.0583h0.52917z"/>
  </g>
 </g>
</svg>
