<?xml version="1.0" encoding="UTF-8"?>
<svg id="small-key" width="32" height="32" version="1.1" viewBox="0 0 8.4666664 8.4666664" xmlns="http://www.w3.org/2000/svg" xmlns:cc="http://creativecommons.org/ns#" xmlns:dc="http://purl.org/dc/elements/1.1/" xmlns:rdf="http://www.w3.org/1999/02/22-rdf-syntax-ns#">
 <metadata>
  <rdf:RDF>
   <cc:Work rdf:about="">
    <dc:format>image/svg+xml</dc:format>
    <dc:type rdf:resource="http://purl.org/dc/dcmitype/StillImage"/>
    <dc:title/>
   </cc:Work>
  </rdf:RDF>
 </metadata>
 <g transform="translate(0 -288.53)">
  <path d="m2.6458 288.53h1.0583v0.52916h1.0583v-0.52916h1.0583v0.52916h0.52917v2.6458h-0.52917v0.52916h-0.52917v1.5875h0.52917v0.52918h-0.52917v0.52916h0.52917v0.52916h-0.52917v0.52918h-1.0583v0.52916h-0.52917v-0.52916h-0.52917v-3.7042h-0.52917v-0.52916h-0.52917v-2.6458h0.52917v2.6458h0.52917v0.52916h0.52917v3.7042h0.52917v-0.52918h1.0583v-0.52916h-1.0583v-0.52916h1.0583v-0.52918h-1.0583v-0.52916h0.52917v-1.0583h0.52917v-0.52916h0.52917v-2.6458h-1.0583v0.52918h-1.0583v-0.52918h-1.0583z" fill="#282828"/>
  <path d="m3.7042 290.12h1.0583v1.0583h-1.0583z" fill="#282828"/>
  <path d="m2.6458 289.59h1.0583v2.1167h0.52917v4.2333h-0.52917v-3.7042h-0.52917v-0.52916h-0.52917z" fill="#bc6228"/>
  <g fill="#feb451">
   <path d="m2.6458 289.06h1.0583v0.52918h1.0583v-0.52918h1.0583v2.6458h-0.52917v0.52916h-0.52917v1.0583h-0.52917v-1.5875h-0.52917v-0.52916h1.0583v-1.0583h-1.0583v-0.52916h-1.0583z"/>
   <path d="m4.2333 293.82h1.0583v0.52918h-1.0583z"/>
   <path d="m4.2333 294.88h1.0583v0.52916h-1.0583z"/>
  </g>
 </g>
</svg>
